<?xml version="1.0" encoding="utf-8"?>
<!-- Generator: Adobe Illustrator 21.1.0, SVG Export Plug-In . SVG Version: 6.00 Build 0)  -->
<svg version="1.1" id="Layer_1" xmlns="http://www.w3.org/2000/svg" xmlns:xlink="http://www.w3.org/1999/xlink" x="0px" y="0px"
	 width="357.5px" height="189.7px" viewBox="0 0 357.5 189.7" style="enable-background:new 0 0 357.5 189.7;" xml:space="preserve"
	>
<path d="M93.2,57.9c-4.6-5.6-10.3-8.4-17.1-8.4c-3,0-5.7,0.5-8.3,1.6c-2.5,1.1-4.7,2.6-6.5,4.4c-1.8,1.9-3.3,4.1-4.3,6.6
	c-1,2.6-1.6,5.3-1.6,8.3c0,3,0.5,5.9,1.6,8.4c1,2.6,2.5,4.8,4.4,6.7c1.9,1.9,4,3.4,6.5,4.5c2.5,1.1,5.2,1.6,8.1,1.6
	c6.4,0,12.1-2.7,17.2-8.1v23.6l-2,0.7c-3,1.1-5.9,1.9-8.5,2.4c-2.6,0.5-5.2,0.8-7.8,0.8c-5.3,0-10.3-1-15.2-3
	c-4.8-2-9.1-4.8-12.8-8.4c-3.7-3.6-6.6-7.9-8.9-12.9c-2.2-5-3.4-10.4-3.4-16.3s1.1-11.3,3.3-16.2c2.2-4.9,5.1-9.1,8.8-12.7
	c3.7-3.6,8-6.3,12.8-8.3c4.9-2,10-3,15.3-3c3,0,6,0.3,9,1c2.9,0.6,6,1.6,9.3,3V57.9z"/>
<path d="M134.8,49.2v59.7h-19.9V49.2H98.6V32.3h52.6v16.9H134.8z"/>
<path d="M223.6,108.9h-24.8l-19-29.4v29.4H160V32.3h31c4.3,0,8,0.6,11.2,1.9c3.2,1.3,5.8,3,7.9,5.1c2.1,2.2,3.6,4.7,4.7,7.5
	c1,2.8,1.6,5.9,1.6,9.1c0,5.8-1.4,10.5-4.2,14.2c-2.8,3.6-7,6.1-12.4,7.4L223.6,108.9z M179.9,66.5h3.8c3.9,0,6.9-0.8,9-2.4
	c2.1-1.6,3.1-4,3.1-7c0-3-1.1-5.4-3.1-7c-2.1-1.6-5.1-2.4-9-2.4h-3.8V66.5z"/>
<path d="M251.9,32.3V92h23.9v16.9H232V32.3H251.9z"/>
<path d="M302.7,136.1H7.3V5.7h295.5V136.1z M21.8,121.6h266.5V20.2H21.8V121.6z"/>
<path d="M291.8,29.2v14.5h20v101.4H45.3v-19.9c-4.8-0.4-9.7-0.5-14.5-0.8v35.2h295.5V29.2H291.8z"/>
<polygon points="317.8,53.7 317.8,68.2 336.2,68.2 336.2,169.6 69.8,169.6 69.8,149.9 55.3,149.9 55.3,184.1 350.7,184.1 
	350.7,53.7 "/>
</svg>
